<svg class="Icon__icon Header__logo-img" version="1.1" id="Layer_1" xmlns="http://www.w3.org/2000/svg" xmlns:xlink="http://www.w3.org/1999/xlink" x="0px" y="0px" viewBox="0 0 228.3 39.7" style="enable-background:new 0 0 228.3 39.7;" xml:space="preserve">
<style type="text/css" >
	path{fill:#6281af;}
</style>
	<path class="st0" d="M13.6,34c-2-0.1-3.8-0.7-5.3-1.8l1-1.1c1.4,1,2.9,1.5,4.5,1.5c1.9,0,3.3-0.3,4.3-1.1s1.5-1.7,1.5-3
	c0-1.1-0.3-2-1-2.7s-2.1-1.6-4.2-2.8c-2.4-1.3-4-2.4-4.6-3.3s-1-1.9-1-3.1c0-1.6,0.7-2.9,2-4s3.1-1.6,5.3-1.6
	c2,0.1,3.8,0.7,5.3,1.8l-1,1.1c-1.4-1-2.9-1.5-4.5-1.5S13,12.8,12,13.5c-0.9,0.8-1.4,1.7-1.4,2.9c0,1.1,0.3,2,1,2.7
	s2.1,1.6,4.2,2.7c2.2,1.2,3.7,2.2,4.5,3.1s1.1,2,1.1,3.2c0,1.7-0.6,3.1-1.9,4.2C18,33.5,16.1,34.1,13.6,34z" />
	<path class="st0" d="M39.5,33.7V23H25.7v10.7h-1.6V11.4h1.6v10.2h13.7V11.4H41v22.2h-1.5V33.7z" />
	<path class="st0" d="M44.6,33.7V11.4h11.2v1.4h-9.5v8.9h8.9v1.4h-8.9v9.1h10.1v1.4H44.6V33.7z" />
	<path class="st0" d="M58.6,33.7V11.4h11.2v1.4h-9.5v8.9h8.9v1.4h-8.9v9.1h10.1v1.4H58.6V33.7z" />
	<path class="st0" d="M84.7,33.7l-6-9.9h-4.6v9.9h-1.7V11.4h6.7c2.1,0,3.8,0.5,5,1.6s1.8,2.5,1.8,4.2c0,1.6-0.5,2.9-1.5,4
	S82,23,80.2,23.3v0.1l6.3,10.3H84.7L84.7,33.7z M74.1,12.9v9.5h4.1c1.8,0,3.3-0.4,4.4-1.3s1.6-2.1,1.6-3.7c0-1.4-0.5-2.5-1.5-3.3
	s-2.4-1.2-4.2-1.2C78.6,12.9,74.1,12.9,74.1,12.9z" />
	<path class="st0" d="M104.4,34c-2-0.1-3.8-0.7-5.3-1.8l1-1.1c1.4,1,2.9,1.5,4.5,1.5c1.9,0,3.3-0.3,4.3-1.1s1.5-1.7,1.5-3
	c0-1.1-0.3-2-1-2.7s-2.1-1.6-4.2-2.8c-2.4-1.3-4-2.4-4.6-3.3s-1-1.9-1-3.1c0-1.6,0.7-2.9,2-4s3.1-1.6,5.3-1.6
	c2,0.1,3.8,0.7,5.3,1.8l-1,1.1c-1.4-1-2.9-1.5-4.5-1.5s-2.9,0.4-3.9,1.1c-0.9,0.8-1.4,1.7-1.4,2.9c0,1.1,0.3,2,1,2.7
	s2.1,1.6,4.2,2.7c2.2,1.2,3.7,2.2,4.5,3.1s1.1,2,1.1,3.2c0,1.7-0.6,3.1-1.9,4.2C108.9,33.5,106.9,34.1,104.4,34z" />
	<path class="st0" d="M125.6,34.1c-3.3,0-5.9-1-8-3.1s-3.1-4.7-3.1-8c0-3.6,1.1-6.5,3.4-8.7s5.1-3.3,8.5-3.3c2.6,0,4.7,0.8,6.5,2.2
	l-1.3,1.1c-1.5-1.2-3.2-1.9-5.2-1.9c-3,0-5.5,0.9-7.3,2.8s-2.8,4.4-2.8,7.6c0,3,0.9,5.4,2.7,7.2c1.8,1.8,4.1,2.6,6.8,2.6
	c2,0,3.7-0.6,5.2-1.9l1.3,1.1C130.5,33.3,128.2,34,125.6,34.1z" />
	<path class="st0" d="M137.3,11.4v22.2h-1.7V11.4H137.3z" />
	<path class="st0" d="M140.9,33.7V11.4h11.2v1.4h-9.6v8.9h8.9v1.4h-8.9v9.1h10.1v1.4h-11.7V33.7z" />
	<path class="st0" d="M171.8,33.7l-14.3-18c-0.3-0.4-0.6-0.7-0.8-1.1l-0.2-0.3h-0.1c0,0.3,0,0.6,0,1v18.4h-1.7V11.4h1.3l14.2,17.8
	c0.3,0.4,0.6,0.9,1,1.4h0.1c-0.1-0.7-0.1-1.3-0.1-1.9V11.4h1.7v22.2h-1.1V33.7z" />
	<path class="st0" d="M187.1,34.1c-3.3,0-5.9-1-8-3.1s-3.1-4.7-3.1-8c0-3.6,1.1-6.5,3.4-8.7s5.1-3.3,8.5-3.3c2.6,0,4.7,0.8,6.5,2.2
	l-1.3,1.1c-1.5-1.2-3.2-1.9-5.2-1.9c-3,0-5.5,0.9-7.3,2.8c-1.9,1.9-2.8,4.4-2.8,7.6c0,3,0.9,5.4,2.7,7.2s4.1,2.6,6.9,2.6
	c2,0,3.7-0.6,5.2-1.9l1.3,1.1C191.9,33.3,189.7,34,187.1,34.1z" />
	<path class="st0" d="M197.2,33.7V11.4h11.2v1.4h-9.6v8.9h8.9v1.4h-8.9v9.1h10.1v1.4h-11.7V33.7z" />
	<path class="st0" d="M223,6.9c0.6,0.3,1.2,0.7,1.7,1.1c0.5,0.5,0.9,1,1.1,1.7c0.3,0.6,0.4,1.3,0.4,2.1c0,0.8-0.1,1.4-0.4,2.1
	c-0.3,0.6-0.6,1.2-1.1,1.7c-0.5,0.5-1,0.9-1.7,1.1s-1.3,0.4-2.1,0.4s-1.4-0.1-2.1-0.4c-0.6-0.3-1.2-0.6-1.7-1.1s-0.9-1-1.1-1.7
	c-0.3-0.6-0.4-1.3-0.4-2.1s0.1-1.4,0.4-2.1s0.6-1.2,1.1-1.7s1-0.8,1.7-1.1s1.3-0.4,2.1-0.4C221.7,6.5,222.4,6.6,223,6.9z
		M219.2,7.6c-0.6,0.2-1,0.6-1.4,1s-0.7,0.9-0.9,1.4c-0.2,0.6-0.3,1.1-0.3,1.8c0,0.6,0.1,1.2,0.3,1.8s0.5,1,0.9,1.4s0.9,0.7,1.4,1
	c0.5,0.3,1.1,0.4,1.8,0.4c0.6,0,1.2-0.1,1.8-0.4c0.6-0.2,1-0.6,1.4-1s0.7-0.9,0.9-1.4s0.3-1.1,0.3-1.8c0-0.6-0.1-1.2-0.3-1.8
	s-0.5-1-0.9-1.4s-0.9-0.7-1.4-1c-0.6-0.2-1.1-0.4-1.8-0.4C220.3,7.2,219.7,7.4,219.2,7.6z M219,14.9V8.7h2.4c0.7,0,1.2,0.1,1.5,0.4
	s0.5,0.7,0.5,1.3c0,0.3,0,0.5-0.1,0.7s-0.2,0.4-0.3,0.5s-0.3,0.2-0.5,0.3s-0.4,0.1-0.6,0.2l1.8,2.7h-0.9l-1.7-2.7h-1.3v2.7
	L219,14.9L219,14.9z M221.5,11.5c0.2,0,0.4-0.1,0.6-0.1s0.3-0.2,0.4-0.3s0.2-0.4,0.2-0.6c0-0.2,0-0.4-0.1-0.5s-0.2-0.2-0.3-0.3
	s-0.3-0.1-0.5-0.2c-0.2,0-0.4,0-0.5,0h-1.4v2.1h1C221,11.5,221.2,11.5,221.5,11.5z" />
</svg>